<svg width="140" height="140" viewBox="0 0 140 140" fill="currentColor" xmlns="http://www.w3.org/2000/svg">
<path d="M62.0669 38.7948C60.9147 38.7948 59.8152 38.1287 59.3167 37.0079L54.744 26.7198C54.0691 25.2017 54.7527 23.4243 56.2709 22.7495C57.7882 22.0746 59.5661 22.7579 60.2412 24.2763L64.8139 34.5644C65.4887 36.0826 64.8051 37.8599 63.287 38.5347C62.89 38.7111 62.4752 38.7948 62.0669 38.7948Z" fill="white"/>
<path d="M77.9328 38.7948C77.5246 38.7948 77.1098 38.7111 76.7128 38.5347C75.1946 37.8602 74.511 36.0825 75.1859 34.5644L79.7586 24.2763C80.4334 22.7582 82.2113 22.0752 83.7289 22.7495C85.247 23.424 85.9306 25.2017 85.2558 26.7198L80.6831 37.0079C80.1849 38.1287 79.0851 38.7948 77.9328 38.7948Z" fill="white"/>
<path d="M70.0002 123.295C53.2642 123.295 39.6487 109.68 39.6487 92.9436C39.6487 76.2076 53.2642 62.592 70.0002 62.592C86.736 62.592 100.352 76.2076 100.352 92.9436C100.352 109.68 86.736 123.295 70.0002 123.295ZM70.0002 68.6077C56.5813 68.6077 45.6643 79.5247 45.6643 92.9436C45.6643 106.362 56.5813 117.28 70.0002 117.28C83.4189 117.28 94.3359 106.363 94.3359 92.9436C94.3359 79.5247 83.4189 68.6077 70.0002 68.6077Z" fill="white"/>
<path d="M124.288 73.0089C119.564 63.3587 112.547 54.8885 104.606 49.1209C107.094 46.7357 108.365 43.1774 107.671 39.5473C107.143 36.7891 105.573 34.4012 103.249 32.8237C102.779 32.5046 102.289 32.2262 101.785 31.9897C106.441 25.7012 106.785 20.542 106.477 17.7551C106.076 14.131 104.256 11.0439 101.484 9.28566C97.7536 6.9207 93.7576 7.70629 90.5461 8.33738C88.6437 8.71144 86.8475 9.06418 85.5438 8.71555C84.5941 8.46098 83.6193 7.40578 82.4906 6.18406C80.0797 3.57437 76.7776 0 70 0C63.2223 0 59.9202 3.57438 57.5091 6.18461C56.3803 7.40633 55.4058 8.46152 54.4561 8.71582C53.1529 9.06527 51.3562 8.71172 49.4536 8.33766C46.2429 7.70656 42.2463 6.92098 38.5164 9.28594C35.7437 11.0441 33.9237 14.131 33.5229 17.7554C33.2144 20.5423 33.5584 25.7015 38.215 31.99C37.7103 32.2265 37.2205 32.5049 36.7505 32.824C34.4268 34.4014 32.8568 36.7894 32.329 39.5478C31.635 43.1782 32.9065 46.7373 35.3926 49.122C27.4523 54.8896 20.4353 63.3596 15.7117 73.0092C9.77781 85.1323 8.08442 97.6866 10.944 108.359C13.4837 117.837 19.6393 125.669 28.7451 131.009C38.9211 136.975 52.801 140 70 140C87.1989 140 101.079 136.975 111.255 131.008C120.36 125.669 126.516 117.837 129.056 108.359C131.915 97.6864 130.222 85.132 124.288 73.0089ZM39.5021 18.4166C39.7014 16.6173 40.516 15.1411 41.738 14.3664C43.327 13.3593 45.2746 13.647 48.2937 14.2404C50.6696 14.7077 53.3627 15.2368 56.0131 14.5264C58.6436 13.8214 60.3884 11.9328 61.9278 10.2665C64.0346 7.98547 65.8546 6.01562 70 6.01562C74.1453 6.01562 75.965 7.98547 78.0721 10.2665C79.6116 11.9328 81.3564 13.8214 83.9871 14.5264C86.6375 15.2368 89.3309 14.7074 91.7062 14.2404C94.7253 13.647 96.673 13.3591 98.2622 14.3664C99.4839 15.1411 100.299 16.6173 100.498 18.4166C100.915 22.1914 98.7155 26.8781 94.4414 31.3726C86.3406 32.8896 78.3346 33.6279 70 33.6279C61.668 33.6279 53.6648 32.8902 45.5585 31.3723C41.2844 26.8778 39.0846 22.1914 39.5021 18.4166ZM38.2377 40.6774C38.4636 39.4975 39.1352 38.4757 40.1296 37.8005C40.8849 37.2879 41.7571 37.0218 42.6466 37.0218C42.9236 37.0218 43.2028 37.0478 43.4801 37.1C43.4913 37.1022 43.5025 37.1044 43.5134 37.1063C52.3042 38.8134 60.9683 39.6432 70 39.6432C79.0327 39.6432 87.6974 38.8134 96.4884 37.106C96.4974 37.1044 96.5067 37.1027 96.516 37.1008C97.691 36.881 98.8812 37.129 99.8703 37.8005C100.865 38.4757 101.536 39.4972 101.762 40.6774C102.228 43.1137 100.625 45.4748 98.1796 45.9424C89.0096 47.7247 79.2651 48.6667 69.9997 48.6667C60.7394 48.6667 51.001 47.7258 41.8266 45.9435C41.8192 45.9422 41.8116 45.9405 41.8042 45.9391C39.372 45.4702 37.7723 43.1115 38.2377 40.6774ZM123.245 106.802C121.093 114.834 116.035 121.232 108.211 125.819C98.9712 131.237 86.1147 133.984 70 133.984C53.8852 133.984 41.0287 131.237 31.7882 125.819C23.9651 121.232 18.9073 114.834 16.7551 106.802C11.3487 86.6258 25.4811 62.0977 41.8055 52.063C51.0146 53.778 60.7364 54.6826 70 54.6826C79.2662 54.6826 88.9907 53.7775 98.1944 52.063C114.519 62.0977 128.651 86.6258 123.245 106.802Z" fill="white"/>
<path d="M78.2966 78.0095C76.8441 77.2029 75.0132 77.726 74.2068 79.1779L60.5349 103.787C59.728 105.24 60.2514 107.071 61.7033 107.877C62.166 108.134 62.6669 108.256 63.1613 108.256C64.2181 108.256 65.2435 107.698 65.7931 106.709L79.465 82.0993C80.2719 80.6474 79.7485 78.8164 78.2966 78.0095Z" fill="white"/>
<path d="M63.1659 83.647C64.827 83.647 66.1737 82.3003 66.1737 80.6392C66.1737 78.9781 64.827 77.6314 63.1659 77.6314H63.1639C61.5028 77.6314 60.1572 78.9781 60.1572 80.6392C60.1572 82.3003 61.5045 83.647 63.1659 83.647Z" fill="white"/>
<path d="M76.8361 102.24H76.8341C75.173 102.24 73.8271 103.587 73.8271 105.248C73.8271 106.909 75.1749 108.256 76.8361 108.256C78.4972 108.256 79.8439 106.909 79.8439 105.248C79.8439 103.587 78.4972 102.24 76.8361 102.24Z" fill="white"/>
</svg>
